<?xml version="1.0" encoding="iso-8859-1"?>
<!-- Uploaded to: SVG Repo, www.svgrepo.com, Generator: SVG Repo Mixer Tools -->
<!DOCTYPE svg PUBLIC "-//W3C//DTD SVG 1.1//EN" "http://www.w3.org/Graphics/SVG/1.1/DTD/svg11.dtd">
<svg fill="#EFB111" version="1.1" id="Capa_1" xmlns="http://www.w3.org/2000/svg" xmlns:xlink="http://www.w3.org/1999/xlink" 
	 width="800px" height="800px" viewBox="0 0 33.861 33.862"
	 xml:space="preserve">
<g>
	<path d="M26.247,19.34l0.185-0.002V21.2c-0.121-0.006-0.183-0.01-0.189-0.01c-0.758,0-1.137-0.314-1.137-0.947
		C25.105,19.643,25.484,19.34,26.247,19.34z M27.299,22.365v2.015h0.184c0.826,0,1.238-0.354,1.238-1.062
		c0-0.39-0.093-0.644-0.273-0.769C28.262,22.426,27.881,22.365,27.299,22.365z M33.861,21.649c0,3.859-3.129,6.99-6.988,6.99
		c-3.857,0-6.986-3.131-6.986-6.99c0-3.86,3.129-6.987,6.986-6.987C30.732,14.661,33.861,17.786,33.861,21.649z M30.021,23.295
		c0-0.746-0.168-1.262-0.504-1.541c-0.332-0.281-0.979-0.447-1.935-0.498l-0.284-0.012V19.34h0.2c0.705,0,1.058,0.281,1.058,0.848
		l0.006,0.138h1.242v-0.177c0-0.745-0.179-1.258-0.531-1.53c-0.354-0.274-1.012-0.412-1.975-0.412v-0.739h-0.867v0.739
		c-1.008,0-1.697,0.144-2.068,0.431c-0.373,0.287-0.561,0.819-0.561,1.6c0,0.803,0.188,1.354,0.557,1.646
		c0.369,0.291,1.062,0.438,2.072,0.438v2.061l-0.189-0.004c-0.52,0-0.854-0.068-1.002-0.203c-0.146-0.137-0.225-0.438-0.225-0.908
		v-0.131H23.73l-0.006,0.26c0,0.771,0.184,1.31,0.553,1.617c0.367,0.31,1.006,0.465,1.912,0.465l0.242,0.006v0.854h0.867v-0.854
		l0.266-0.006c0.908,0,1.545-0.164,1.91-0.483C29.837,24.661,30.021,24.1,30.021,23.295z M14.74,22.199L30.904,6.037l0.127-4.62
		l-4.62,0.129L10.249,17.708L6.231,17.29L1.79,21.729l7.818,1.109l1.109,7.817l4.439-4.44L14.74,22.199z M9.243,25.283
		c-0.201,0.399-0.479,0.806-0.852,1.176c-1.137,1.138-3.258,0.856-3.258,0.856s-0.281-2.122,0.855-3.26
		c0.371-0.371,0.774-0.649,1.176-0.854c-1.078-0.141-2.354,0.312-3.344,1.307C2.334,25.995,0,32.445,0,32.445
		s6.451-2.332,7.938-3.818C8.931,27.633,9.384,26.361,9.243,25.283z"/>
</g>
</svg>