<svg xmlns="http://www.w3.org/2000/svg" viewBox="0 0 64 64"><title>Artboard-29</title><g id="Wallet"><path d="M63,37H52a7,7,0,0,0,0,14H63a1.0029,1.0029,0,0,0,1-1V38A1.0029,1.0029,0,0,0,63,37ZM52,47a3,3,0,1,1,3-3A3.0088,3.0088,0,0,1,52,47Z" style="fill:#EEB210"/><path d="M43,44a9.0136,9.0136,0,0,1,9-9h8V25a1.0029,1.0029,0,0,0-1-1H56V19a1,1,0,0,0-1-1H50V5a1.0029,1.0029,0,0,0-1-1H37V8h3a1.0029,1.0029,0,0,1,1,1,3.9989,3.9989,0,0,0,4,4,1.0029,1.0029,0,0,1,1,1V24H44V14.92A6.0376,6.0376,0,0,1,39.08,10H37V24H35V1a1,1,0,0,0-1-1H20V24H18V0H15V24H13V0H9A1,1,0,0,0,8,1V18H4a4.0039,4.0039,0,0,0-4,4V60a3.9989,3.9989,0,0,0,4,4H59a1.0029,1.0029,0,0,0,1-1V53H52A9.0136,9.0136,0,0,1,43,44ZM54,20v4H50V20ZM26,7a3,3,0,0,1,6,0,2.8542,2.8542,0,0,1-.41,1.49,3,3,0,1,1-5.18,0A2.8542,2.8542,0,0,1,26,7ZM4,20H8v4H4a2,2,0,0,1,0-4Z" style="fill:#EEB210"/><circle cx="29" cy="10" r="1" style="fill:#EEB210"/><path d="M29,7a3.2684,3.2684,0,0,1,.99.17A.97.97,0,0,0,30,7a1,1,0,0,0-2,0,.97.97,0,0,0,.01.17A3.24,3.24,0,0,1,29,7Z" style="fill:#EEB210"/></g></svg>